<?xml version="1.0" encoding="utf-8"?>
<!-- Generator: Adobe Illustrator 19.0.0, SVG Export Plug-In . SVG Version: 6.00 Build 0)  -->
<svg version="1.1" id="Layer_1" xmlns="http://www.w3.org/2000/svg" xmlns:xlink="http://www.w3.org/1999/xlink" x="0px" y="0px"
	 viewBox="0 0 500 500" style="enable-background:new 0 0 500 500;" xml:space="preserve">
<style type="text/css">
	.st0{fill:#C6037C;}
	.st1{fill:#660F6F;}
</style>
<g id="XMLID_1_">
	<polyline id="XMLID_3_" class="st0" points="328.5,192.3 432.5,192.3 360.3,285.5 411.9,285.5 407.7,311.7 304.7,311.7 375,218.6 
		328.5,218.6 328.5,192.3 	"/>
	<polyline id="XMLID_4_" class="st1" points="249.9,179.1 363.1,179.1 282,282.9 326.5,282.9 304.7,311.7 221.1,311.7 298.9,207.9 
		243,207.8 249.9,179.1 	"/>
	<polyline id="XMLID_5_" class="st0" points="236.6,285.4 208.5,285.4 227.6,166.6 256,166.6 236.6,285.4 	"/>
	<path id="XMLID_6_" class="st0" d="M217.8,297c9.9,0,18.1,8.1,18.1,18.2c0,10-8.1,18.2-18.1,18.2c-10,0-18.2-8.1-18.2-18.2
		C199.6,305.2,207.8,297,217.8,297"/>
	<polyline id="XMLID_7_" class="st1" points="67.5,185.7 83.1,311.7 107,311.7 142.9,240.3 148.2,311.7 171.7,311.7 234.2,185.7 
		199.1,185.7 169,253.5 164.2,185.7 136.6,185.7 104.7,253.5 99.4,185.7 67.5,185.7 	"/>
</g>
</svg>
